<svg xmlns="http://www.w3.org/2000/svg" viewBox="0 0 1600 760"><style>text{font-family:"Microsoft YaHei","Noto Sans SC",sans-serif}</style><rect width="1600" height="760" fill="#FFFFFF"/><text x="70" y="65" text-anchor="start" fill="#29353B" font-size="29" font-weight="700">A  输入与标注</text><text x="505" y="65" text-anchor="start" fill="#29353B" font-size="29" font-weight="700">B  层次建模</text><text x="1070" y="65" text-anchor="start" fill="#29353B" font-size="29" font-weight="700">C  验证与回写</text><path d="M70 90 H1530" fill="none" stroke="#23292F" stroke-width="2" stroke-linejoin="round" stroke-linecap="round"/><text x="70" y="136" text-anchor="start" fill="#29353B" font-size="25" font-weight="700">会话 07 / 仿真版本 1.0</text><path d="M70 151 H420" fill="none" stroke="#AAB1B5" stroke-width="1" stroke-linejoin="round" stroke-linecap="round"/><text x="70" y="200" text-anchor="start" fill="#23292F" font-family="Consolas,monospace" font-size="24">00:01.000  ARM      #02</text><text x="70" y="245" text-anchor="start" fill="#23292F" font-family="Consolas,monospace" font-size="24">00:01.120  ACK      #03</text><text x="70" y="290" text-anchor="start" fill="#23292F" font-family="Consolas,monospace" font-size="24">00:02.000  TAKEOFF  #04</text><text x="70" y="352" text-anchor="start" fill="#5B6268" font-size="23" font-weight="400">附：动作日志、公开规范、程序证据</text><path d="M430 235 H480" fill="none" stroke="#004488" stroke-width="2.5" stroke-linejoin="round" stroke-linecap="round"/><path d="M469 228 L480 235 L469 242" fill="none" stroke="#004488" stroke-width="2.5" stroke-linejoin="round" stroke-linecap="round"/><text x="505" y="136" text-anchor="start" fill="#29353B" font-size="26" font-weight="700">帧字段对齐</text><path d="M505 151 H1000" fill="none" stroke="#AAB1B5" stroke-width="1" stroke-linejoin="round" stroke-linecap="round"/><rect x="505" y="181" width="73" height="72" rx="0" fill="#FFFFFF" stroke="#AAB1B5" stroke-width="1.5"/><text x="541.5" y="226" text-anchor="middle" fill="#29353B" font-size="23" font-weight="400">同步</text><rect x="578" y="181" width="80" height="72" rx="0" fill="#FFFFFF" stroke="#AAB1B5" stroke-width="1.5"/><text x="618.0" y="226" text-anchor="middle" fill="#29353B" font-size="23" font-weight="400">长度</text><rect x="658" y="181" width="90" height="72" rx="0" fill="#EAF0F6" stroke="#004488" stroke-width="1.5"/><text x="703.0" y="226" text-anchor="middle" fill="#29353B" font-size="23" font-weight="400">类型</text><rect x="748" y="181" width="166" height="72" rx="0" fill="#EAF0F6" stroke="#004488" stroke-width="1.5"/><text x="831.0" y="226" text-anchor="middle" fill="#29353B" font-size="23" font-weight="400">载荷</text><rect x="914" y="181" width="86" height="72" rx="0" fill="#FFFFFF" stroke="#AAB1B5" stroke-width="1.5"/><text x="957.0" y="226" text-anchor="middle" fill="#29353B" font-size="23" font-weight="400">校验</text><text x="505" y="291" text-anchor="start" fill="#004488" font-family="Consolas,monospace" font-size="24">7E   05   02   0C 00   A1</text><text x="505" y="351" text-anchor="start" fill="#5B6268" font-size="23" font-weight="400">字段语义附来源与置信度</text><text x="505" y="427" text-anchor="start" fill="#29353B" font-size="26" font-weight="700">消息与状态约束</text><path d="M505 442 H1000" fill="none" stroke="#AAB1B5" stroke-width="1" stroke-linejoin="round" stroke-linecap="round"/><circle cx="565" cy="540" r="48" fill="white" stroke="#004488" stroke-width="2"/><text x="565" y="548" text-anchor="middle" fill="#29353B" font-size="23" font-weight="400">待机</text><circle cx="710" cy="540" r="48" fill="white" stroke="#004488" stroke-width="2"/><text x="710" y="548" text-anchor="middle" fill="#29353B" font-size="23" font-weight="400">已解锁</text><circle cx="880" cy="540" r="48" fill="white" stroke="#004488" stroke-width="2"/><text x="880" y="548" text-anchor="middle" fill="#29353B" font-size="23" font-weight="400">飞行中</text><path d="M613 540 H662" fill="none" stroke="#004488" stroke-width="2.2" stroke-linejoin="round" stroke-linecap="round"/><path d="M651 533 L662 540 L651 547" fill="none" stroke="#004488" stroke-width="2.5" stroke-linejoin="round" stroke-linecap="round"/><text x="637" y="512" text-anchor="middle" fill="#5B6268" font-size="20" font-weight="400">ARM</text><path d="M758 540 H832" fill="none" stroke="#004488" stroke-width="2.2" stroke-linejoin="round" stroke-linecap="round"/><path d="M821 533 L832 540 L821 547" fill="none" stroke="#004488" stroke-width="2.5" stroke-linejoin="round" stroke-linecap="round"/><text x="795" y="512" text-anchor="middle" fill="#5B6268" font-size="20" font-weight="400">TAKEOFF</text><path d="M1014 232 H1050" fill="none" stroke="#004488" stroke-width="2.5" stroke-linejoin="round" stroke-linecap="round"/><path d="M1039 225 L1050 232 L1039 239" fill="none" stroke="#004488" stroke-width="2.5" stroke-linejoin="round" stroke-linecap="round"/><text x="1070" y="136" text-anchor="start" fill="#29353B" font-size="26" font-weight="700">一致性检查</text><path d="M1070 151 H1530" fill="none" stroke="#AAB1B5" stroke-width="1" stroke-linejoin="round" stroke-linecap="round"/><text x="1070" y="202" text-anchor="start" fill="#29353B" font-size="25" font-weight="400">语法  /  字段  /  时序  /  状态</text><path d="M1070 223 H1530" fill="none" stroke="#AAB1B5" stroke-width="1" stroke-linejoin="round" stroke-linecap="round"/><text x="1070" y="286" text-anchor="start" fill="#004488" font-size="25" font-weight="400">通过：证据充分并可重放</text><text x="1070" y="338" text-anchor="start" fill="#994455" font-size="25" font-weight="400">待确认：保留候选与冲突</text><path d="M1070 373 H1530" fill="none" stroke="#AAB1B5" stroke-width="1" stroke-linejoin="round" stroke-linecap="round"/><text x="1070" y="427" text-anchor="start" fill="#29353B" font-size="26" font-weight="700">输出记录</text><text x="1070" y="478" text-anchor="start" fill="#23292F" font-family="Consolas,monospace" font-size="23">case: 07-ARM-TAKEOFF</text><text x="1070" y="520" text-anchor="start" fill="#23292F" font-family="Consolas,monospace" font-size="23">source: frame #02-#04</text><text x="1070" y="562" text-anchor="start" fill="#23292F" font-family="Consolas,monospace" font-size="23">version: AeroLab 1.0</text><path d="M1305 608 V662 H360 V377" fill="none" stroke="#994455" stroke-width="2" stroke-linejoin="round" stroke-linecap="round" stroke-dasharray="8 7"/><path d="M353 388 L360 377 L367 388" fill="none" stroke="#994455" stroke-width="2.5" stroke-linejoin="round" stroke-linecap="round"/><text x="780" y="699" text-anchor="middle" fill="#994455" font-size="25" font-weight="400">验证失败 → 补充样本与实验 → 模型修订</text></svg>